<?xml version="1.0" encoding="UTF-8"?>
<svg version="1.1" xmlns="http://www.w3.org/2000/svg" width="600" height="600">
<path d="M0 0 C198 0 396 0 600 0 C600 198 600 396 600 600 C402 600 204 600 0 600 C0 402 0 204 0 0 Z " fill="#000000" transform="translate(0,0)"/>
<path d="M0 0 C198 0 396 0 600 0 C600 198 600 396 600 600 C402 600 204 600 0 600 C0 402 0 204 0 0 Z M130 90 C129.45988281 90.43715332 128.91976562 90.87430664 128.36328125 91.32470703 C114.27187021 102.81709034 101.11988998 115.59610512 90 130 C89.14984075 131.03997785 88.2968165 132.07761819 87.44140625 133.11328125 C69.48427697 155.05015085 55.94607193 180.54480187 46 207 C45.6589624 207.90532471 45.3179248 208.81064941 44.96655273 209.7434082 C39.42886217 224.68902119 35.79301528 239.9131012 33.1875 255.625 C32.98068604 256.86870361 32.77387207 258.11240723 32.56079102 259.39379883 C23.84705022 314.12870154 33.50273525 370.45508685 58 420 C58.39687012 420.80614746 58.79374023 421.61229492 59.20263672 422.44287109 C75.9558948 456.12881524 101.11400305 488.00741549 131 511 C132.43279297 512.15822266 132.43279297 512.15822266 133.89453125 513.33984375 C155.79831924 530.78021834 180.85644499 544.17109313 207 554 C207.90532471 554.3410376 208.81064941 554.6820752 209.7434082 555.03344727 C224.68902119 560.57113783 239.9131012 564.20698472 255.625 566.8125 C256.86870361 567.01931396 258.11240723 567.22612793 259.39379883 567.43920898 C314.12870154 576.15294978 370.45508685 566.49726475 420 542 C420.80614746 541.60312988 421.61229492 541.20625977 422.44287109 540.79736328 C454.66758665 524.77082789 485.43153318 501.10284442 507.67919922 472.67578125 C509.19770075 470.74916489 510.74183784 468.84428906 512.28515625 466.9375 C556.13512606 412.28356434 575.89260085 340.91309091 569.17480469 271.44311523 C561.59231597 204.61604659 529.1558678 138.87262917 476.875 95.625 C475.47281848 94.51452052 474.07012749 93.40463369 472.65966797 92.3046875 C470.73844533 90.79438833 468.84091637 89.25626062 466.94140625 87.71875 C390.19335719 26.13049555 282.63340426 13.00002663 130 90 Z " fill="#FEFEFE" transform="translate(0,0)"/>
<path d="M0 0 C0.88492343 -0.00322445 1.76984686 -0.00644889 2.68158615 -0.00977105 C4.15659865 -0.00744815 4.15659865 -0.00744815 5.66140938 -0.00507832 C6.69736941 -0.00734387 7.73332943 -0.00960943 8.80068219 -0.01194364 C12.30074726 -0.01831557 15.80077393 -0.01745224 19.30084419 -0.01662922 C21.79855589 -0.01961873 24.29626712 -0.02302077 26.79397774 -0.02680683 C32.89159822 -0.03475001 38.98920339 -0.03786242 45.08682762 -0.03841921 C50.04149028 -0.03889364 54.99614974 -0.04094471 59.95081139 -0.04411983 C73.98544009 -0.05293122 88.02006112 -0.05753851 102.05469261 -0.05678936 C103.19070757 -0.05672943 103.19070757 -0.05672943 104.34967232 -0.05666828 C105.10793604 -0.0566274 105.86619976 -0.05658652 106.64744116 -0.0565444 C118.93823085 -0.05613789 131.2289899 -0.06570743 143.51977073 -0.07980665 C156.12736741 -0.09415563 168.73494915 -0.10107763 181.34255421 -0.10021287 C188.42575951 -0.09988037 195.5089327 -0.10265066 202.59213066 -0.11339092 C209.25194467 -0.12342412 215.91170228 -0.12317569 222.57152367 -0.11587429 C225.0213525 -0.11482398 227.47118549 -0.11721759 229.92100716 -0.12323475 C233.2546405 -0.1308948 236.58803548 -0.12634975 239.92166328 -0.11860371 C240.90054351 -0.12374727 241.87942373 -0.12889083 242.88796699 -0.13419026 C244.22317537 -0.12729207 244.22317537 -0.12729207 245.58535767 -0.12025452 C246.35526814 -0.12047188 247.12517862 -0.12068925 247.91841972 -0.12091321 C249.91851997 0.12863445 249.91851997 0.12863445 252.91851997 2.12863445 C253.46326763 5.71901671 253.35541752 7.48384121 251.30133247 10.5153532 C250.55625435 11.27461102 249.81117622 12.03386883 249.04351997 12.81613445 C248.22367622 13.67336102 247.40383247 14.53058758 246.55914497 15.4137907 C245.2520356 16.75763836 245.2520356 16.75763836 243.91851997 18.12863445 C242.20322426 19.99726721 240.49483914 21.8722677 238.79351997 23.75363445 C237.9504731 24.67918133 237.10742622 25.6047282 236.23883247 26.55832195 C234.35536994 28.64471648 232.50286067 30.7493244 230.66851997 32.87863445 C227.18687845 36.89081183 223.55124827 40.75391333 219.91851997 44.62863445 C215.15136998 49.7140088 210.46445148 54.84370916 205.91851997 60.12863445 C204.50640483 61.75759125 203.08959108 63.38248475 201.66851997 65.00363445 C201.02398872 65.74355633 200.37945747 66.4834782 199.71539497 67.24582195 C197.65369044 69.40612975 195.96794861 70.99591411 192.92713308 71.38048345 C192.16134451 71.38135023 191.39555594 71.382217 190.60656166 71.38311005 C189.72113953 71.38894224 188.8357174 71.39477443 187.9234643 71.40078336 C186.94983926 71.39700404 185.97621423 71.39322471 184.9730854 71.38933086 C183.42270742 71.39506918 183.42270742 71.39506918 181.84100866 71.40092343 C178.36093537 71.411282 174.88102619 71.40725586 171.40094185 71.40329266 C168.91278619 71.40763751 166.42463188 71.4128199 163.93647957 71.41878033 C157.86986515 71.43080937 151.80331579 71.43331892 145.73669541 71.43098006 C140.80734394 71.42919884 135.87800594 71.43094233 130.94865608 71.43520451 C129.89731545 71.43609729 129.89731545 71.43609729 128.82473561 71.43700811 C127.4009964 71.43821983 125.9772572 71.43943396 124.553518 71.44065049 C111.19515597 71.45153246 97.83681918 71.44936029 84.47845572 71.44326564 C72.24920657 71.43809464 60.02003702 71.44935557 47.79080361 71.46836386 C35.24189889 71.48771994 22.69303187 71.49600227 10.14411211 71.49224061 C3.09557571 71.49032532 -3.9528929 71.49284791 -11.00141716 71.50695515 C-17.62681034 71.52008104 -24.25206998 71.51763935 -30.87747192 71.50454426 C-33.31440153 71.50216754 -35.75134221 71.50495202 -38.18825912 71.51316738 C-41.50437668 71.52354394 -44.81994824 71.51560752 -48.13604546 71.50285625 C-49.10967049 71.51023054 -50.08329553 71.51760482 -51.08642435 71.52520257 C-51.97184648 71.51799603 -52.85726861 71.51078949 -53.76952171 71.50336456 C-54.91820457 71.50344709 -54.91820457 71.50344709 -56.09009314 71.50353128 C-58.64007944 71.023473 -59.519605 70.16866226 -61.08148003 68.12863445 C-61.61663628 65.33957195 -61.61663628 65.33957195 -61.08148003 62.12863445 C-59.28721382 59.75395701 -57.61242695 57.82233614 -55.51898003 55.75363445 C-54.40238013 54.60068014 -53.28649019 53.44703783 -52.17132378 52.29269695 C-51.63233452 51.74387859 -51.09334526 51.19506023 -50.53802299 50.62961102 C-48.81459708 48.85360992 -47.18755019 47.01106083 -45.58148003 45.12863445 C-42.02330155 41.015033 -38.32305883 37.0376817 -34.62664604 33.04880047 C-31.56560905 29.7432244 -28.52722363 26.42002902 -25.51898003 23.06613445 C-22.14054966 19.30001536 -18.74483436 15.55058377 -15.33148003 11.81613445 C-14.44976128 10.85062664 -13.56804253 9.88511883 -12.65960503 8.8903532 C-10.18822993 6.24298624 -7.65787128 3.67349644 -5.08148003 1.12863445 C-3.54404808 -0.4087975 -2.14315527 0.00196169 0 0 Z " fill="#6571D7" transform="translate(204.08148002624512,370.8713655471802)"/>
<path d="M0 0 C0.88132204 -0.00583219 1.76264407 -0.01166439 2.67067283 -0.01767331 C3.6397248 -0.01389399 4.60877677 -0.01011467 5.60719395 -0.00622082 C6.63599015 -0.01004636 7.66478636 -0.01387191 8.72475821 -0.01781338 C12.18867822 -0.02817184 15.65243336 -0.02414582 19.11636448 -0.02018261 C21.59304553 -0.0245275 24.06972524 -0.0297099 26.54640293 -0.03567028 C32.58527897 -0.04769956 38.62408965 -0.0502088 44.66297167 -0.04787002 C49.57038473 -0.04608866 54.47778428 -0.04783257 59.38519573 -0.05209446 C60.0830254 -0.05268965 60.78085507 -0.05328484 61.4998311 -0.05389806 C62.91736757 -0.05510978 64.33490405 -0.05632392 65.75244052 -0.05754044 C79.05312883 -0.06842273 92.3537918 -0.06625022 105.65448154 -0.06015559 C117.82808981 -0.05498577 130.00161808 -0.06624234 142.17521053 -0.08525381 C154.66874951 -0.10461569 167.16225061 -0.11289112 179.65580469 -0.10913056 C186.67251502 -0.10721601 193.68915725 -0.10973073 200.70585537 -0.1238451 C207.30252467 -0.13698002 213.89905991 -0.13452134 220.49573803 -0.12143421 C222.9209597 -0.11905923 225.34619251 -0.12183584 227.77140141 -0.13005733 C231.07403228 -0.14044852 234.3761165 -0.13248541 237.67872715 -0.11974621 C238.6455484 -0.12712049 239.61236964 -0.13449478 240.6084885 -0.14209253 C241.93438317 -0.13128271 241.93438317 -0.13128271 243.2870636 -0.12025452 C244.04943469 -0.12030953 244.81180577 -0.12036455 245.59727901 -0.12042123 C248.31587465 0.36279788 249.69933702 1.38589847 251.70645237 3.25447559 C252.39785862 5.94978809 252.39785862 5.94978809 251.70645237 9.25447559 C249.64603775 12.17333226 247.17861973 14.62108659 244.64395237 17.12947559 C243.31840685 18.47973688 241.99418426 19.83129818 240.67129612 21.18416309 C240.01000706 21.85463673 239.34871799 22.52511036 238.66738987 23.21590137 C236.13264701 25.85099884 233.74167468 28.59493876 231.35220432 31.36140919 C228.90644622 34.17470222 226.3714265 36.9014502 223.83145237 39.62947559 C220.24157218 43.50139782 216.6695977 47.38622918 213.14395237 51.31697559 C211.66512587 52.96311458 210.18593615 54.60892731 208.70645237 56.25447559 C208.01905979 57.01969532 208.01905979 57.01969532 207.31778049 57.80037403 C205.8469196 59.43433836 204.37095415 61.06356208 202.89395237 62.69197559 C202.43754368 63.20059132 201.98113499 63.70920704 201.51089573 64.23323536 C195.39306026 70.95574718 195.39306026 70.95574718 191.58330429 71.63052309 C190.42982126 71.63125367 190.42982126 71.63125367 189.25303555 71.63199902 C188.36152227 71.63982226 187.470009 71.6476455 186.55148017 71.65570581 C185.57619491 71.64901364 184.60090965 71.64232148 183.59607029 71.63542652 C182.55684142 71.64010649 181.51761256 71.64478647 180.4468919 71.64960825 C176.9536936 71.6616043 173.46088427 71.65208287 169.96768284 71.64265919 C167.4679043 71.64672278 164.96812755 71.65206346 162.46835423 71.65858936 C156.3774471 71.67086856 150.28669349 71.66904435 144.1957923 71.66035144 C139.24738251 71.65358088 134.2990038 71.65265544 129.35059071 71.65592289 C128.64676836 71.65638259 127.94294601 71.65684229 127.21779571 71.65731592 C125.7880953 71.65827507 124.35839489 71.65924771 122.9286945 71.66023369 C109.51931488 71.6687905 96.10999676 71.65894825 82.70062722 71.64283259 C71.18642488 71.6294233 59.67231324 71.63176195 48.15811253 71.64558887 C34.79416603 71.66162951 21.43027341 71.66797266 8.06631863 71.65875208 C6.64243993 71.65779641 5.21856122 71.6568533 3.7946825 71.65592289 C3.09405987 71.65546006 2.39343724 71.65499724 1.67158362 71.65452038 C-3.27381877 71.65192637 -8.21918706 71.6563102 -13.16458416 71.66336155 C-19.81462013 71.67263487 -26.46451067 71.6660696 -33.11453915 71.64867878 C-35.56156153 71.64469663 -38.00859829 71.64587726 -40.45561504 71.65246677 C-43.78298625 71.66060401 -47.10979778 71.65045567 -50.43713284 71.63542652 C-51.41687954 71.64211869 -52.39662625 71.64881085 -53.40606225 71.65570581 C-54.29236002 71.64788257 -55.1786578 71.64005933 -56.09181309 71.63199902 C-56.86047707 71.63151196 -57.62914105 71.6310249 -58.42109787 71.63052309 C-60.29354763 71.25447559 -60.29354763 71.25447559 -62.29354763 68.25447559 C-62.91854763 65.56697559 -62.91854763 65.56697559 -62.29354763 62.25447559 C-60.50800741 60.07114413 -58.5532543 58.21466891 -56.48495388 56.29744434 C-54.56278867 54.50547927 -52.86563795 52.69289283 -51.16854763 50.69197559 C-47.65627445 46.60511395 -43.98036128 42.68303964 -40.29354763 38.75447559 C-36.13753949 34.32248042 -32.02366281 29.87531646 -28.05917263 25.27010059 C-25.23913641 22.05076721 -22.32871986 18.91398556 -19.42758083 15.76790333 C-15.86788559 11.90156075 -12.38695586 7.97269782 -8.94979763 3.99666309 C-6.07536733 0.97308783 -4.06340288 0.00462087 0 0 Z " fill="#2EA2AE" transform="translate(205.29354763031006,157.7455244064331)"/>
<path d="M0 0 C0.88793108 -0.00768229 1.77586215 -0.01536458 2.69070023 -0.02327967 C3.67229153 -0.0215467 4.65388282 -0.01981374 5.66521931 -0.01802826 C6.70329505 -0.0239705 7.74137079 -0.02991275 8.81090337 -0.03603506 C12.31236697 -0.05346985 15.8136943 -0.05643064 19.31519794 -0.0594101 C21.81642165 -0.06866225 24.31764251 -0.078711 26.81886005 -0.08950043 C33.63098303 -0.11579525 40.44305235 -0.12872068 47.2552135 -0.13752174 C51.50835562 -0.14304396 55.76148863 -0.1515183 60.0146246 -0.16053009 C71.78848386 -0.1849208 83.5623358 -0.20551683 95.33621979 -0.21228027 C96.09012948 -0.21271941 96.84403917 -0.21315854 97.62079461 -0.21361098 C98.37652193 -0.21404753 99.13224926 -0.21448409 99.91087741 -0.21493387 C101.44229806 -0.21582081 102.97371871 -0.21671393 104.50513935 -0.21761322 C105.26477894 -0.21805608 106.02441853 -0.21849894 106.8070775 -0.21895522 C119.11136407 -0.22684837 131.41541351 -0.26174516 143.71960851 -0.30833226 C156.34986369 -0.35576803 168.97999995 -0.38068444 181.61034566 -0.38301611 C188.7027243 -0.38484942 195.79479423 -0.396348 202.88708782 -0.43265533 C209.55941945 -0.46669192 216.23106536 -0.46995654 222.90349293 -0.45237732 C225.35326994 -0.45083337 227.80307809 -0.45956434 230.25277615 -0.47929382 C233.59652545 -0.50464533 236.93818463 -0.49303122 240.28191853 -0.47212982 C241.25235621 -0.48824263 242.2227939 -0.50435544 243.22263879 -0.52095652 C249.11348643 -0.43478322 252.22857979 0.61155479 256.45071107 4.78927469 C256.89301567 5.27555637 257.33532026 5.76183805 257.79102802 6.26285553 C258.39430927 6.89449615 258.99759052 7.52613678 259.61915302 8.17691803 C260.08837177 8.7415274 260.55759052 9.30613678 261.04102802 9.88785553 C264.04607773 13.42081937 267.14570063 16.85493024 270.29102802 20.26285553 C273.31068508 23.54103619 276.31305953 26.82867681 279.22852802 30.20035553 C282.26561055 33.7013361 285.39382342 37.11121089 288.54102802 40.51285553 C289.05061054 41.06368805 289.56019306 41.61452057 290.08521748 42.18204498 C292.18132457 44.44639268 294.27842146 46.70982159 296.37598896 48.97281647 C297.89134191 50.60932194 299.40394317 52.24833075 300.91602802 53.88785553 C302.25020771 55.33031647 302.25020771 55.33031647 303.61134052 56.80191803 C305.79102802 59.26285553 305.79102802 59.26285553 307.79102802 62.26285553 C307.22499029 68.82889327 307.22499029 68.82889327 305.79102802 70.26285553 C304.4301238 70.36281834 303.06408416 70.39391329 301.69951725 70.39707661 C300.81234382 70.40153445 299.9251704 70.40599229 299.01111293 70.41058522 C298.02524455 70.41040086 297.03937618 70.4102165 296.023633 70.41002655 C294.98500056 70.41370324 293.94636811 70.41737993 292.87626195 70.42116803 C289.3670515 70.43225413 285.8578706 70.43605702 282.34864521 70.43985748 C279.844326 70.44611841 277.34000773 70.45276487 274.8356905 70.4597702 C267.29875634 70.47903562 259.76182736 70.48960435 252.22487485 70.49849799 C248.67805955 70.50287769 245.13124576 70.50824537 241.58443165 70.51348686 C229.79773868 70.53050248 218.01104666 70.54499696 206.2243433 70.5522356 C203.16372648 70.55414559 200.10310966 70.55606591 197.04249287 70.55802155 C195.9013983 70.55874716 195.9013983 70.55874716 194.73725131 70.55948742 C182.41221356 70.56778879 170.08727283 70.59312596 157.76227745 70.62560222 C145.11625091 70.65865339 132.4702737 70.67668266 119.82420373 70.67987984 C112.72076579 70.6820469 105.61746928 70.69082379 98.51407337 70.71634102 C91.83284609 70.74028575 85.15191766 70.74388592 78.47064114 70.73357964 C76.01519456 70.73308229 73.55973575 70.73946071 71.1043272 70.75313568 C67.75802808 70.77073286 64.41265608 70.76380785 61.06635761 70.75060272 C60.08941212 70.76157197 59.11246664 70.77254121 58.10591674 70.78384286 C53.79945609 70.74267408 51.45667801 70.68409145 47.74867344 68.33759594 C47.10265045 67.6529316 46.45662746 66.96826727 45.79102802 66.26285553 C45.26380146 65.70726959 44.7365749 65.15168365 44.19337177 64.57926178 C43.46827412 63.71107819 43.46827412 63.71107819 42.72852802 62.82535553 C39.50438518 59.05092134 36.16926376 55.39858988 32.79102802 51.76285553 C29.57908561 48.3003256 26.37998453 44.83635423 23.29102802 41.26285553 C20.27694976 37.78057094 17.1685893 34.39287013 14.04102802 31.01285553 C13.53063984 30.46121735 13.02025166 29.90957916 12.49439716 29.34122467 C10.92696506 27.64810342 9.35901464 25.95546325 7.79102802 24.26285553 C5.76736224 22.07795151 3.74675257 19.89028588 1.72852802 17.70035553 C0.85067646 16.75031647 -0.0271751 15.8002774 -0.93162823 14.82144928 C-6.1380541 8.97203427 -6.1380541 8.97203427 -6.52147198 5.13785553 C-6.01908488 0.51589422 -4.23501064 0.01371016 0 0 Z " fill="#4A8AC4" transform="translate(149.2089719772339,264.73714447021484)"/>
</svg>
